<?xml version="1.0" encoding="UTF-8"?>
<svg version="1.1" xmlns="http://www.w3.org/2000/svg" width="1417" height="1417">
<path d="M0 0 C2.13022951 -0.00389893 4.26045825 -0.008236 6.39068604 -0.01298523 C10.83502737 -0.02040247 15.2792892 -0.02018935 19.72363281 -0.01489258 C25.36570688 -0.00910844 31.00745155 -0.02602584 36.64947128 -0.04923725 C41.04406577 -0.06410576 45.43858335 -0.06482856 49.83319855 -0.06172752 C51.91081646 -0.06223432 53.98843943 -0.06734847 56.06603241 -0.07753944 C81.31771031 -0.18621986 102.24014526 1.92824196 121.453125 19.80078125 C130.29503676 29.35960478 130.29503676 29.35960478 131.765625 32.30078125 C132.29929687 31.58792969 132.83296875 30.87507812 133.3828125 30.140625 C145.58612524 14.45366762 165.88302457 3.68769676 185.65641212 1.04840469 C191.3444273 0.35769031 196.93927058 0.14698192 202.66552734 0.13964844 C203.61167908 0.13468353 204.55783081 0.12971863 205.53265381 0.12460327 C208.63896435 0.11009354 211.74522374 0.10319636 214.8515625 0.09765625 C216.45849409 0.09341518 216.45849409 0.09341518 218.09788895 0.08908844 C223.77375786 0.07413682 229.44960164 0.06488348 235.12548828 0.06054688 C240.935861 0.055086 246.74599659 0.03109674 252.55629539 0.00257492 C257.06927114 -0.0162209 261.58219185 -0.02126611 266.0952034 -0.022789 C268.2342317 -0.02578091 270.37325986 -0.03368932 272.51224899 -0.04697418 C282.83368464 -0.10647402 292.97629643 0.0409574 303.19775391 1.59472656 C303.9428591 1.70592205 304.68796429 1.81711754 305.45564842 1.93168259 C321.71428366 4.73673308 335.478228 15.3098318 345.20703125 28.234375 C346.74445815 30.37210212 346.74445815 30.37210212 348.765625 32.30078125 C349.4771875 31.09421875 349.4771875 31.09421875 350.203125 29.86328125 C356.163855 21.04833584 363.84080518 15.57007486 373.265625 10.92578125 C374.24660156 10.41917969 375.22757813 9.91257812 376.23828125 9.390625 C391.32791538 1.73529796 405.99478546 -0.01460763 422.77832031 0.04199219 C424.08932709 0.03848755 425.40033386 0.03498291 426.75106812 0.03137207 C430.29629881 0.02237728 433.84141106 0.02573701 437.38664341 0.03213024 C441.12371157 0.03725387 444.86077072 0.03248175 448.59783936 0.02935791 C454.86472362 0.02573837 461.13156046 0.030466 467.3984375 0.04003906 C474.61661925 0.05093879 481.83468811 0.0473789 489.05286717 0.03638625 C495.28599609 0.02727842 501.51909126 0.02604455 507.75222468 0.03126359 C511.45964453 0.0343617 515.16701147 0.03485228 518.8744278 0.02819061 C523.00652137 0.02128165 527.13842337 0.03088675 531.27050781 0.04199219 C532.47909454 0.03794373 533.68768127 0.03389526 534.93289185 0.02972412 C545.52252883 0.08221442 557.18668483 0.42459151 565.484375 7.8359375 C573.00673084 15.92984488 574.06531659 25.99808945 573.91796875 36.65625 C573.37547503 46.07338454 571.64196067 54.99017202 564.515625 61.61328125 C555.14827258 68.96335735 543.64845245 68.44819936 532.29443359 68.45849609 C531.06419968 68.46357681 529.83396576 68.46865753 528.56645203 68.47389221 C525.90538504 68.48456057 523.24436894 68.49357112 520.58329391 68.50001144 C516.37194484 68.51075801 512.16067416 68.53101704 507.94937134 68.5531311 C495.9793047 68.61484278 484.00924534 68.66911056 472.0390625 68.70214844 C465.4166236 68.72050571 458.79431885 68.74944601 452.17197859 68.79015315 C448.67307351 68.81118614 445.17433708 68.82667532 441.67536545 68.82896042 C437.7761119 68.83151058 433.87719016 68.85698876 429.97802734 68.88427734 C428.82462357 68.88127121 427.67121979 68.87826508 426.48286438 68.87516785 C420.75807523 68.93478105 416.60429848 69.11216719 411.765625 72.30078125 C411.43136765 74.67452986 411.43136765 74.67452986 411.765625 77.30078125 C416.3327453 81.71041465 421.32940319 81.4554162 427.3293457 81.47436523 C428.20462418 81.48105225 429.07990265 81.48773926 429.98170471 81.49462891 C431.88543108 81.50868719 433.78917438 81.52057876 435.69292641 81.53057671 C438.71731724 81.54701584 441.74158526 81.57026127 444.76591492 81.59547424 C453.36642282 81.66612484 461.9669841 81.72600447 470.56762695 81.77758789 C475.82963883 81.80962661 481.09151435 81.85097523 486.35341454 81.89778328 C488.34860939 81.91367084 490.34383567 81.92605247 492.33907509 81.93469048 C515.80391081 82.0376418 536.99906237 84.06481224 554.953125 100.92578125 C564.10715924 110.54478231 568.55743354 120.96925643 572.765625 133.30078125 C572.98890976 132.77682266 573.21219452 132.25286407 573.44224548 131.71302795 C575.75897743 126.27790595 578.07905867 120.84422284 580.40112305 115.41137695 C581.26820141 113.38147382 582.13441436 111.3512008 582.99975586 109.32055664 C584.24107151 106.40804784 585.48545589 103.49686742 586.73046875 100.5859375 C587.11903549 99.67240005 587.50760223 98.75886261 587.90794373 97.81764221 C588.26824173 96.97684616 588.62853973 96.13605011 588.99975586 95.26977539 C589.31730331 94.52587051 589.63485077 93.78196564 589.96202087 93.01551819 C590.765625 91.30078125 590.765625 91.30078125 591.765625 90.30078125 C593.28128947 90.00237558 594.80357283 89.73733023 596.328125 89.48828125 C599.80220477 88.83474149 602.56776478 88.04099051 605.640625 86.30078125 C618.21646687 79.53305912 634.34916972 82.07793659 647.765625 84.30078125 C647.25741271 78.3009362 645.92827692 73.58223551 643.4921875 68.1015625 C643.16777679 67.34465622 642.84336609 66.58774994 642.50912476 65.8079071 C641.13666662 62.60617064 639.74097467 59.41474706 638.34570312 56.22290039 C634.18246133 46.65983956 630.61293248 37.61506939 628.765625 27.30078125 C627.52017326 20.7593393 626.03788502 14.57221891 623.765625 8.30078125 C624.56226563 8.275 625.35890625 8.24921875 626.1796875 8.22265625 C632.61214323 7.87833988 636.57344922 7.38034793 641.765625 3.30078125 C653.71753537 -1.63587738 669.44985124 -0.98635606 681.5 3.265625 C691.72223159 7.86562922 696.55383082 15.87012707 700.890625 25.86328125 C701.35960205 26.91515625 701.8285791 27.96703125 702.31176758 29.05078125 C706.35108565 38.18002625 710.2045171 47.38946662 714.03613281 56.60742188 C719.13625241 68.86744939 724.36159176 81.0726734 729.59985352 93.27423096 C732.19198077 99.31229381 734.78128459 105.35156761 737.37109375 111.390625 C738.16525843 113.2424042 738.95943552 115.09417809 739.75361824 116.94594955 C740.28650142 118.18847017 740.81937265 119.43099592 741.35223198 120.67352676 C742.69880819 123.81347447 744.04555548 126.95334859 745.39263916 130.09307861 C748.58166967 137.52648579 751.76617356 144.96180055 754.94488525 152.39962769 C755.93843934 154.72248405 756.93347925 157.04470552 757.93011475 159.36624146 C775.80020285 200.99921151 775.80020285 200.99921151 771.828125 214.48828125 C769.48090487 219.72107475 765.60977495 223.34122335 760.765625 226.30078125 C747.89182176 230.88324216 731.10936676 231.29517784 718.453125 225.61328125 C706.82751913 218.92556159 702.51054062 206.63981775 697.3984375 194.8828125 C696.80264893 193.52289185 696.80264893 193.52289185 696.19482422 192.13549805 C695.41999292 190.35499026 694.65815753 188.56875971 693.91064453 186.77661133 C693.55856934 185.96216553 693.20649414 185.14771973 692.84375 184.30859375 C692.53856445 183.5830127 692.23337891 182.85743164 691.91894531 182.10986328 C690.45149013 179.80803371 689.28616004 179.31735651 686.765625 178.30078125 C684.37215808 178.00051846 684.37215808 178.00051846 681.78515625 178.04199219 C680.30341919 178.03253571 680.30341919 178.03253571 678.79174805 178.02288818 C677.73125244 178.02693665 676.67075684 178.03098511 675.578125 178.03515625 C674.48346924 178.0332428 673.38881348 178.03132935 672.26098633 178.02935791 C669.94775157 178.02799757 667.63450913 178.03168345 665.32128906 178.04003906 C661.77912255 178.05074047 658.23746322 178.0401384 654.6953125 178.02734375 C652.44791555 178.02866537 650.20051891 178.03122782 647.953125 178.03515625 C646.89262939 178.03110779 645.83213379 178.02705933 644.73950195 178.02288818 C643.75167725 178.0291925 642.76385254 178.03549683 641.74609375 178.04199219 C640.87879639 178.04358337 640.01149902 178.04517456 639.11791992 178.04681396 C636.54868628 178.3242032 634.9461582 178.93098542 632.765625 180.30078125 C631.42269225 182.34362632 631.42269225 182.34362632 630.43359375 184.81640625 C629.8300708 186.18901611 629.8300708 186.18901611 629.21435547 187.58935547 C628.79814941 188.56662598 628.38194336 189.54389648 627.953125 190.55078125 C627.06528376 192.55924938 626.17595988 194.56706276 625.28515625 196.57421875 C624.85412598 197.55487305 624.4230957 198.53552734 623.97900391 199.54589844 C614.02710863 222.14090574 614.02710863 222.14090574 602.265625 226.73828125 C597.75515024 228.14277751 593.48177393 229.09385698 588.765625 229.30078125 C587.88519531 229.35234375 587.00476563 229.40390625 586.09765625 229.45703125 C575.36786676 229.79720952 565.20487855 229.07999378 556.953125 221.67578125 C555.53150911 220.2425698 554.12781726 218.79058629 552.765625 217.30078125 C552.435625 216.97078125 552.105625 216.64078125 551.765625 216.30078125 C546.97419932 216.40272648 544.11362114 217.53577081 540.078125 220.11328125 C526.1946857 228.8322484 509.83278306 229.61391077 493.84472656 229.55957031 C491.89284676 229.56482727 491.89284676 229.56482727 489.90153503 229.57019043 C486.38316268 229.57918399 482.8649097 229.57582602 479.34653568 229.56943226 C475.63749472 229.564308 471.92846282 229.56908092 468.21942139 229.57220459 C461.99961543 229.57582394 455.77985727 229.57109699 449.56005859 229.56152344 C442.39640812 229.5506236 435.2328714 229.55418375 428.06922364 229.56517625 C421.8828034 229.57428446 415.69641715 229.57551777 409.50999236 229.57029891 C405.83051805 229.56720102 402.15109704 229.56670958 398.47162628 229.57337189 C394.37066523 229.58028156 390.26989717 229.57067514 386.16894531 229.55957031 C384.96970932 229.56361877 383.77047333 229.56766724 382.53489685 229.57183838 C371.99206986 229.51919076 360.35171337 229.16866508 352.08203125 221.80078125 C348.10708941 217.51854964 345.85242315 212.71418116 343.765625 207.30078125 C339.55561846 207.82703207 337.34467269 210.21962143 334.265625 212.98828125 C328.57696057 217.92068484 322.72993709 221.36484576 315.765625 224.30078125 C315.03085937 224.61660156 314.29609375 224.93242188 313.5390625 225.2578125 C299.75474263 230.49791912 284.01215343 229.61272726 269.53125 229.6015625 C267.40102049 229.60546143 265.27079175 229.6097985 263.14056396 229.61454773 C258.69622263 229.62196497 254.2519608 229.62175185 249.80761719 229.61645508 C244.16554312 229.61067094 238.52379845 229.62758834 232.88177872 229.65079975 C228.48718423 229.66566826 224.09266665 229.66639106 219.69805145 229.66329002 C217.62043354 229.66379682 215.54281057 229.66891097 213.46521759 229.67910194 C188.21353969 229.78778236 167.29110474 227.67332054 148.078125 209.80078125 C143.75891513 205.13136517 139.53521092 200.42970269 135.765625 195.30078125 C132.48408875 196.67509985 130.90353665 198.04410714 129.015625 201.05078125 C128.58765625 201.705625 128.1596875 202.36046875 127.71875 203.03515625 C126.45850061 206.03083103 126.39640705 208.07217544 126.765625 211.30078125 C128.18463378 214.11034511 128.18463378 214.11034511 130.140625 216.73828125 C135.20695687 224.34289657 136.81261471 231.20505818 135.765625 240.30078125 C134.01846645 246.16766024 130.85753324 249.87353532 125.765625 253.30078125 C112.12584164 259.94010553 92.60806958 258.8204569 78.38671875 254.59375 C64.63117354 249.35468148 54.61872522 234.80151832 45.80859375 223.6484375 C43.88688008 221.44012026 42.31528301 219.73840767 39.765625 218.30078125 C36.45649464 218.51549582 34.83038218 219.91720749 32.515625 222.17578125 C24.87016829 228.98807922 15.41417922 229.45358038 5.515625 229.46875 C4.73985107 229.4720784 3.96407715 229.4754068 3.16479492 229.47883606 C1.52767524 229.48387458 -0.10945461 229.48624534 -1.74658203 229.48608398 C-4.19972618 229.48825065 -6.6524051 229.5063842 -9.10546875 229.52539062 C-28.86517063 229.59789528 -45.71457357 227.12351474 -62.234375 215.30078125 C-62.85699219 214.86378906 -63.47960937 214.42679688 -64.12109375 213.9765625 C-77.78831467 203.36774067 -84.12790332 187.82074625 -87.234375 171.30078125 C-87.39734164 170.45089441 -87.56030828 169.60100758 -87.72821331 168.72536659 C-88.99489817 161.72199236 -89.52702023 155.01621025 -89.5090332 147.90771484 C-89.51414413 146.83937912 -89.51925507 145.7710434 -89.52452087 144.67033386 C-89.53828934 141.17990334 -89.5374704 137.68967299 -89.53515625 134.19921875 C-89.53904888 131.75167773 -89.54338471 129.30413739 -89.54814148 126.8565979 C-89.5555753 121.74454551 -89.55533209 116.63256223 -89.55004883 111.52050781 C-89.54424407 104.98628132 -89.5612236 98.45233736 -89.5843935 91.91815758 C-89.59915542 86.8702531 -89.59999941 81.82241641 -89.59688377 76.77449417 C-89.59739528 74.36567244 -89.60260087 71.95684675 -89.61269569 69.54804611 C-89.62509662 66.17686514 -89.61824718 62.80623146 -89.60668945 59.43505859 C-89.61815506 57.96036858 -89.61815506 57.96036858 -89.62985229 56.45588684 C-89.53287551 43.5929229 -84.88276358 31.85831586 -75.984375 22.48828125 C-54.94438706 2.81134901 -27.35144733 -0.02108794 0 0 Z M-19.234375 72.30078125 C-20.43099317 75.89063576 -20.38978077 79.1687894 -20.39550781 82.90576172 C-20.40047272 83.67845398 -20.40543762 84.45114624 -20.41055298 85.24725342 C-20.42516138 87.80416758 -20.43197416 90.36101971 -20.4375 92.91796875 C-20.44325226 94.69532269 -20.44900999 96.47267661 -20.45477295 98.25003052 C-20.46527898 101.97739959 -20.47112434 105.70474711 -20.47460938 109.43212891 C-20.48009521 114.20602629 -20.50412677 118.97963862 -20.53258133 123.75344658 C-20.55121292 127.42518952 -20.55641357 131.09686384 -20.55794525 134.76865005 C-20.56097081 136.52850021 -20.5689961 138.28834918 -20.58213043 140.04815292 C-20.59920302 142.51132607 -20.59730799 144.97380326 -20.59082031 147.43701172 C-20.6000351 148.16238129 -20.60924988 148.88775085 -20.6187439 149.63510132 C-20.58249436 154.03302908 -19.91292944 156.79040149 -17.234375 160.30078125 C-14.24063554 162.38011494 -11.70623862 162.57225506 -8.109375 162.55078125 C-6.80613281 162.55851562 -6.80613281 162.55851562 -5.4765625 162.56640625 C-3.03233613 162.51141535 -3.03233613 162.51141535 -1.234375 160.30078125 C-0.193996 157.06404658 0.28649513 155.5656167 -0.234375 152.30078125 C-2.53814877 148.62310159 -5.27262744 145.4634351 -8.234375 142.30078125 C-7.36554688 142.3471875 -6.49671875 142.39359375 -5.6015625 142.44140625 C1.42781783 142.66156581 5.00230503 142.50320206 10.765625 138.30078125 C24.40722702 133.35337172 43.96746705 132.99672674 57.5390625 138.40625 C62.08372461 140.57196141 65.90892276 143.04668874 69.765625 146.30078125 C70.425625 146.30078125 71.085625 146.30078125 71.765625 146.30078125 C71.765625 121.22078125 71.765625 96.14078125 71.765625 70.30078125 C67.49575482 68.16584616 64.48327041 68.0046299 59.86352539 68.01025391 C59.07117996 68.00353668 58.27883453 67.99681946 57.46247864 67.98989868 C54.84601555 67.97091726 52.22980889 67.96699461 49.61328125 67.96484375 C47.792515 67.95841655 45.97174979 67.95168825 44.15098572 67.94467163 C40.33541468 67.93269897 36.5199342 67.92899086 32.7043457 67.93017578 C27.81714118 67.93037911 22.93051723 67.90306225 18.04345036 67.86863136 C14.28333371 67.84638685 10.5233574 67.84233746 6.76318169 67.84339523 C4.96146071 67.84103615 3.15973605 67.83219532 1.35807991 67.8167305 C-1.16265354 67.79711714 -3.68212678 67.80288933 -6.20288086 67.81494141 C-7.31663086 67.79808289 -7.31663086 67.79808289 -8.45288086 67.78088379 C-13.31457866 67.83990191 -15.86769931 68.77626654 -19.234375 72.30078125 Z M188.890625 77.30078125 C187.78074219 78.56921875 187.78074219 78.56921875 186.6484375 79.86328125 C185.02238801 81.96837437 183.83162171 83.87704137 182.765625 86.30078125 C183.30832031 86.85765625 183.85101562 87.41453125 184.41015625 87.98828125 C194.05410534 98.27516028 194.85470632 107.89928053 195.01171875 121.56640625 C195.04462151 123.52734881 195.07783369 125.4882862 195.11132812 127.44921875 C195.15890173 130.51266338 195.20344696 133.5760819 195.24243164 136.63964844 C195.28208664 139.6154354 195.33360038 142.59083344 195.38671875 145.56640625 C195.3951329 146.48311096 195.40354706 147.39981567 195.41221619 148.34429932 C195.42885818 149.19908875 195.44550018 150.05387817 195.46264648 150.93457031 C195.47295395 151.6832135 195.48326141 152.43185669 195.49388123 153.20318604 C195.81473757 155.6798821 196.38145901 157.21833021 197.765625 159.30078125 C201.32578994 162.00007635 205.51453544 161.6034227 209.79125977 161.60717773 C210.59657135 161.61550125 211.40188293 161.62382477 212.2315979 161.63240051 C214.89012497 161.65647189 217.54840682 161.66526724 220.20703125 161.671875 C222.05500869 161.68084054 223.90298538 161.68996237 225.7509613 161.69923401 C229.62199672 161.71571665 233.49294568 161.72342332 237.36401367 161.72631836 C242.329992 161.73171439 247.2951616 161.76944745 252.26091099 161.81506252 C256.07585138 161.84476052 259.89059483 161.85204026 263.70564079 161.85304451 C265.53694314 161.85725803 267.36824549 161.86973748 269.19943428 161.89056206 C271.75669676 161.917339 274.31205498 161.9126942 276.86938477 161.90014648 C277.62842606 161.91498077 278.38746735 161.92981506 279.16950989 161.94509888 C281.52393278 161.96838177 281.52393278 161.96838177 284.765625 161.30078125 C287.82610192 157.70191262 288.0895566 154.94380086 287.765625 150.30078125 C288.37148438 150.35878906 288.97734375 150.41679688 289.6015625 150.4765625 C294.68183863 150.75011583 298.15106802 150.41107172 302.640625 147.92578125 C313.32922456 142.07447947 325.79854275 142.44860614 337.5078125 144.8671875 C343.64070192 146.67401519 348.14172851 149.38609524 351.2890625 155.03515625 C352.28945434 156.99531488 353.25407533 158.97429094 354.17578125 160.97265625 C355.53910248 163.48613055 355.53910248 163.48613055 358.02113438 164.00382328 C361.03338856 164.32975367 363.30583307 163.99474999 366.26731873 163.38023376 C372.80401758 162.19419024 379.10821638 162.01468884 385.73852539 162.02954102 C386.97416229 162.02431427 388.20979919 162.01908752 389.48287964 162.01370239 C392.14286519 162.00352568 394.80259356 161.99675154 397.4625721 161.995821 C401.66924761 161.99386217 405.8757625 161.97571672 410.0823822 161.95506287 C420.51711609 161.90614701 430.95189248 161.87492008 441.38671875 161.85375977 C449.52596377 161.83724188 457.66506784 161.81449583 465.80421823 161.77073902 C469.9865801 161.74896489 474.16867398 161.74090411 478.35108864 161.74313176 C481.55320953 161.74107786 484.75521249 161.71973557 487.95727539 161.70141602 C489.69413353 161.70828178 489.69413353 161.70828178 491.46607971 161.71528625 C492.52145935 161.70563843 493.57683899 161.6959906 494.66419983 161.68605042 C495.5823903 161.68403909 496.50058077 161.68202776 497.44659519 161.67995548 C500.23761095 161.22360893 501.11178748 160.56394706 502.765625 158.30078125 C503.4925476 155.19239104 503.4925476 155.19239104 503.765625 152.30078125 C500.03494962 149.81366433 497.13540414 150.0081287 492.81616211 150.01367188 C492.00583023 150.00683884 491.19549835 150.0000058 490.36061096 149.9929657 C488.59768896 149.97936602 486.83472736 149.97032024 485.07176018 149.96525574 C482.26462657 149.95694736 479.45781534 149.93641439 476.65077209 149.91271973 C470.66827143 149.8644473 464.68573727 149.83165723 458.703125 149.80078125 C451.81673527 149.764895 444.93049778 149.72239289 438.0442524 149.6648407 C435.30950325 149.64510171 432.57487733 149.63651365 429.84007263 149.62854004 C421.51093715 149.57897557 413.27248787 149.30906188 404.98657227 148.41992188 C404.27378837 148.34486168 403.56100447 148.26980148 402.82662106 148.19246674 C385.54243324 146.1255882 370.74841971 137.91967167 359.53515625 124.6640625 C349.99945158 112.12273234 347.26971917 99.55260501 344.765625 84.30078125 C344.12931152 84.36499268 343.49299805 84.4292041 342.83740234 84.49536133 C340.14700404 84.76581001 337.45631746 85.03327693 334.765625 85.30078125 C333.49976563 85.42839844 332.23390625 85.55601562 330.9296875 85.6875 C319.08308115 86.69433078 307.83690208 86.3190928 297.765625 79.30078125 C295.87831282 77.34470061 294.21914401 75.3711553 292.62890625 73.16796875 C288.49991712 69.03032346 283.46917866 67.96499145 277.77972412 67.88308716 C276.68618622 67.88983963 276.68618622 67.88983963 275.57055664 67.89672852 C274.78259201 67.88986526 273.99462738 67.88300201 273.18278503 67.87593079 C270.59693 67.85773849 268.01168609 67.86148932 265.42578125 67.8671875 C263.61648869 67.86262207 261.80719787 67.85731542 259.99790955 67.8513031 C256.21280862 67.84238687 252.42791885 67.84477814 248.64282227 67.85473633 C243.80640877 67.86622425 238.9707256 67.84600976 234.134408 67.81681919 C230.39989132 67.79842127 226.6655485 67.79875679 222.93099785 67.80445671 C221.14851291 67.80460949 219.36601586 67.79860158 217.5835743 67.78616524 C215.08528726 67.77118853 212.58833486 67.78198008 210.09008789 67.79907227 C208.99958633 67.78457031 208.99958633 67.78457031 207.88705444 67.76977539 C199.88458544 67.88369058 194.06323973 71.26299608 188.890625 77.30078125 Z " fill="#000000" transform="translate(395.234375,836.69921875)"/>
<path d="M0 0 C4.19590781 3.70819159 7.35989769 7.5954724 9 13 C9.1953125 16.55078125 9.1953125 16.55078125 9.125 20.3125 C9.10695313 21.56675781 9.08890625 22.82101562 9.0703125 24.11328125 C9.03550781 25.54220703 9.03550781 25.54220703 9 27 C9.7528125 27.3403125 10.505625 27.680625 11.28125 28.03125 C35.07122406 38.88686923 57.0366845 50.94484579 77 68 C77.81855469 68.69480469 78.63710938 69.38960938 79.48046875 70.10546875 C96.76895075 85.19509771 109.54971875 103.25033207 121 123 C121.39429199 123.67192383 121.78858398 124.34384766 122.19482422 125.03613281 C151.12992475 174.86126541 156.86867511 235.15604412 142.53125 290.38671875 C133.8965714 322.46219872 118.12350698 350.38287572 96 375 C95.09701172 376.01320313 95.09701172 376.01320313 94.17578125 377.046875 C69.66467445 402.97802073 33.27105248 419.4041864 -1 427 C-2.01102783 427.22961426 -2.01102783 427.22961426 -3.04248047 427.46386719 C-11.05447016 429.21802975 -19.03753421 430.05596208 -27.22265625 430.51953125 C-27.95534729 430.56107834 -28.68803833 430.60262543 -29.44293213 430.64543152 C-33.1495462 430.84937854 -36.85571423 431.02948151 -40.56494141 431.1784668 C-41.95345141 431.24395907 -43.34196056 431.30946939 -44.73046875 431.375 C-45.96176514 431.42398437 -47.19306152 431.47296875 -48.46166992 431.5234375 C-53.79106259 432.24123054 -58.40882359 433.9705075 -62.25 437.875 C-73.34998597 447.90240305 -88.04993729 448.79518444 -102.21191406 448.1953125 C-112.49233204 447.47514311 -122.79655972 445.49417231 -132.5546875 442.1875 C-133.89660156 441.73818115 -133.89660156 441.73818115 -135.265625 441.27978516 C-136.95902567 440.69260862 -138.64040622 440.06905286 -140.3046875 439.40380859 C-142.66611106 438.56863451 -144.49155295 438.00960874 -147 438 C-149.40801163 439.23999368 -151.22632953 440.6519545 -153.22900391 442.46972656 C-157.22440154 445.92204974 -162.69093542 446.48389179 -167.828125 446.3046875 C-175.3171388 445.25407046 -180.93469041 442.14587394 -185.58984375 436.203125 C-189.93974059 429.40716429 -190.36797486 423.83476513 -189 416 C-189.6703125 415.78214844 -190.340625 415.56429688 -191.03125 415.33984375 C-194.94264653 413.57456874 -198.10261441 411.1612693 -201.5 408.5625 C-202.2019751 408.02971436 -202.9039502 407.49692871 -203.62719727 406.94799805 C-218.66312977 395.44352791 -231.6001606 383.13681846 -243 368 C-243.41894531 367.4524707 -243.83789062 366.90494141 -244.26953125 366.34082031 C-279.0084128 320.76671618 -295.07745426 260.70386869 -287.48071289 203.92822266 C-281.5541983 164.31984153 -265.97699589 126.4256021 -241 95 C-240.02933594 93.72382813 -240.02933594 93.72382813 -239.0390625 92.421875 C-203.29124018 46.67561962 -147.10322513 20.98606157 -90.52880859 13.6809082 C-83.6896262 12.90576412 -76.87811042 12.80858447 -70 12.8125 C-68.82332764 12.81185547 -67.64665527 12.81121094 -66.43432617 12.81054688 C-56.84536774 12.86811072 -47.4817277 13.61182549 -38 15 C-37.5978125 13.39705078 -37.5978125 13.39705078 -37.1875 11.76171875 C-35.31667886 5.83540048 -32.01374906 1.77542643 -26.6328125 -1.39453125 C-17.36828535 -5.47842717 -8.79379508 -5.20952547 0 0 Z M-41 118 C-44.58655401 126.48608607 -48.00370764 135.02704178 -51.3125 143.625 C-51.76689453 144.79417969 -52.22128906 145.96335937 -52.68945312 147.16796875 C-53.11806641 148.28042969 -53.54667969 149.39289063 -53.98828125 150.5390625 C-54.37540283 151.54146973 -54.76252441 152.54387695 -55.16137695 153.57666016 C-56.10901069 155.8876136 -56.10901069 155.8876136 -56 158 C-54.38049438 158.10489746 -54.38049438 158.10489746 -52.72827148 158.21191406 C15.44411464 162.68041052 15.44411464 162.68041052 46.47265625 171.2109375 C49.81760756 171.95919903 50.89975924 171.95699571 54 171 C39.41230354 152.19054125 22.85586437 137.6921032 1 128 C-0.07765625 127.51789063 -1.1553125 127.03578125 -2.265625 126.5390625 C-14.51126532 121.46235232 -27.78163785 118.71066463 -41 118 Z M-155 164 C-151.61075281 165.1051893 -149.09284373 164.89085855 -145.59375 164.328125 C-144.47758301 164.15958008 -143.36141602 163.99103516 -142.21142578 163.81738281 C-140.98665527 163.63014648 -139.76188477 163.44291016 -138.5 163.25 C-124.7460734 161.26210747 -110.99010546 160.14555533 -97.125 159.25 C-95.6256189 159.15313904 -95.6256189 159.15313904 -94.09594727 159.05432129 C-88.39806942 158.68956527 -82.69946643 158.3389843 -77 158 C-74.5876165 152.66597837 -72.28740974 147.3206215 -70.203125 141.84765625 C-69.9646283 141.22144882 -69.72613159 140.59524139 -69.48040771 139.95005798 C-68.98517382 138.64744703 -68.49121832 137.34434934 -67.99853516 136.04077148 C-67.24166405 134.04046927 -66.47846146 132.04265691 -65.71484375 130.04492188 C-65.23139143 128.77097725 -64.74830471 127.49689381 -64.265625 126.22265625 C-63.61255371 124.50187866 -63.61255371 124.50187866 -62.94628906 122.74633789 C-61.89141069 120.1689826 -61.89141069 120.1689826 -62 118 C-99.00645566 117.01547771 -130.34961783 138.72991548 -155 164 Z M-135.3125 229.5 C-152.86084385 230.32751062 -170.43722822 230.08755121 -188 230 C-188.69675414 233.77549132 -189.12134761 237.34168645 -189.09765625 241.1796875 C-189.09443359 242.1078125 -189.09121094 243.0359375 -189.08789062 243.9921875 C-189.07951172 244.94351563 -189.07113281 245.89484375 -189.0625 246.875 C-189.05798828 247.84953125 -189.05347656 248.8240625 -189.04882812 249.828125 C-189.03710906 252.21881434 -189.02070219 254.6093744 -189 257 C-187.21722656 256.51080078 -187.21722656 256.51080078 -185.3984375 256.01171875 C-178.83642016 254.56470325 -172.31463632 254.74681874 -165.625 254.8125 C-164.23893422 254.81940976 -162.85286636 254.82591174 -161.46679688 254.83203125 C-145.30598408 254.93195952 -129.15079729 255.4519224 -113 256 C-111.49198432 252.06552291 -109.99497086 248.12695023 -108.5 244.1875 C-108.07074219 243.06794922 -107.64148438 241.94839844 -107.19921875 240.79492188 C-106.59013672 239.18520508 -106.59013672 239.18520508 -105.96875 237.54296875 C-105.59169922 236.55321045 -105.21464844 235.56345215 -104.82617188 234.54370117 C-103.84554675 231.97020458 -103.84554675 231.97020458 -104 229 C-114.45723311 228.89484347 -124.86605535 228.99494677 -135.3125 229.5 Z M-83 230 C-85.7602063 235.83889794 -88.02572381 241.75537162 -90.1484375 247.84765625 C-90.56162231 249.02624207 -90.56162231 249.02624207 -90.9831543 250.2286377 C-91.65711491 252.15183767 -92.3287901 254.07583828 -93 256 C-40.75924538 257.76660798 -40.75924538 257.76660798 6 244 C5.97718944 241.92733528 5.97718944 241.92733528 5 240 C-0.85959856 236.56177289 -8.82827471 235.98388093 -15.4375 235 C-16.54424072 234.83338867 -17.65098145 234.66677734 -18.79125977 234.49511719 C-39.9723478 231.44990819 -61.58904663 229.23734071 -83 230 Z M-176 314 C-174.60827375 318.91994037 -172.40237518 322.9194838 -169.5625 327.125 C-169.12728027 327.7737207 -168.69206055 328.42244141 -168.24365234 329.09082031 C-162.92964832 336.81512498 -156.73570108 344.60299925 -149 350 C-147.31026853 346.00935759 -145.6500292 342.00721377 -144 338 C-143.51144531 336.82824219 -143.02289062 335.65648437 -142.51953125 334.44921875 C-142.05933594 333.31097656 -141.59914063 332.17273438 -141.125 331 C-140.69445312 329.948125 -140.26390625 328.89625 -139.8203125 327.8125 C-138.95854696 324.85787529 -139.14130667 323.84152194 -140 321 C-140.59312988 320.89453857 -141.18625977 320.78907715 -141.79736328 320.68041992 C-153.24237611 318.63927819 -164.65658629 316.55517169 -176 314 Z M29.5078125 316.76953125 C28.65018311 316.93469238 27.79255371 317.09985352 26.90893555 317.27001953 C25.99023682 317.44903809 25.07153809 317.62805664 24.125 317.8125 C-6.04728554 323.46337924 -36.15304504 325.3422194 -66.7989502 325.19561768 C-69.6639115 325.18474263 -72.52882618 325.18519161 -75.39380455 325.18563652 C-89.95128472 325.18502653 -104.47607788 325.09645455 -119 324 C-120.5729434 328.07269123 -122.13933576 332.14782243 -123.69970703 336.2253418 C-124.23144063 337.61209913 -124.76495802 338.99817385 -125.30029297 340.38354492 C-126.06948357 342.37502078 -126.83222484 344.36886369 -127.59375 346.36328125 C-128.05458984 347.56251221 -128.51542969 348.76174316 -128.99023438 349.99731445 C-130.15937336 352.94593251 -130.15937336 352.94593251 -130 356 C-129.30777344 355.7834375 -128.61554688 355.566875 -127.90234375 355.34375 C-114.6426657 351.57024478 -102.44737758 352.96735228 -89.04711914 354.85302734 C-50.30419883 360.1443424 -9.20968575 356.00128383 22.90307617 331.77954102 C28.61517594 327.28348 34.24707498 322.52047813 39 317 C39 316.67 39 316.34 39 316 C35.71515285 315.92881024 32.72855031 316.13113377 29.5078125 316.76953125 Z " fill="#273379" transform="translate(809,311)"/>
<path d="M0 0 C6.61901749 1.82402987 12.81298163 4.02538277 19 7 C19.81251221 7.38953857 20.62502441 7.77907715 21.4621582 8.18041992 C60.58753561 27.34796008 91.51145941 57.30480589 113 95 C113.36448242 95.62648438 113.72896484 96.25296875 114.10449219 96.8984375 C143.00639947 146.89644127 148.91691929 206.97019772 134.53125 262.38671875 C125.8965714 294.46219872 110.12350698 322.38287572 88 347 C87.09701172 348.01320313 87.09701172 348.01320313 86.17578125 349.046875 C61.66467445 374.97802073 25.27105248 391.4041864 -9 399 C-10.01102783 399.22961426 -10.01102783 399.22961426 -11.04248047 399.46386719 C-19.05447016 401.21802975 -27.03753421 402.05596208 -35.22265625 402.51953125 C-35.95534729 402.56107834 -36.68803833 402.60262543 -37.44293213 402.64543152 C-41.1495462 402.84937854 -44.85571423 403.02948151 -48.56494141 403.1784668 C-49.95345141 403.24395907 -51.34196056 403.30946939 -52.73046875 403.375 C-53.96176514 403.42398437 -55.19306152 403.47296875 -56.46166992 403.5234375 C-61.79106259 404.24123054 -66.40882359 405.9705075 -70.25 409.875 C-81.34869374 419.90123569 -96.04698621 420.79522918 -110.20751953 420.1953125 C-125.30682572 419.13923233 -139.76879751 414.92997777 -154 410 C-154 407 -154 407 -152.5 404.0625 C-150.22118948 398.86944141 -150.20961018 393.55389992 -151 388 C-152.10044655 385.20685268 -153.36309478 382.72817537 -154.90625 380.15625 C-156 378 -156 378 -156 374 C-150.97444681 375.0014932 -145.95009004 376.00812197 -140.9296875 377.03515625 C-140.09566406 377.20466797 -139.26164063 377.37417969 -138.40234375 377.54882812 C-136.70918144 377.89295617 -135.01647464 378.23933256 -133.32421875 378.58789062 C-124.42692223 380.38804132 -116.07471664 381.15013318 -107 381 C-107.5669458 380.88519287 -108.1338916 380.77038574 -108.71801758 380.65209961 C-122.31459466 377.85179844 -135.12404223 374.18524766 -148 369 C-149.49853516 368.40251953 -149.49853516 368.40251953 -151.02734375 367.79296875 C-151.67832031 367.53128906 -152.32929687 367.26960938 -153 367 C-150.68860831 358.38296958 -147.39204534 350.23311977 -144 342 C-143.20287598 342.36182373 -143.20287598 342.36182373 -142.38964844 342.73095703 C-129.52610615 348.52368282 -116.7172381 353.62206326 -103 357 C-102.27796387 357.17789062 -101.55592773 357.35578125 -100.81201172 357.5390625 C-78.02671693 362.80806391 -51.51241296 361.82160268 -29 356 C-28.27087402 355.81276367 -27.54174805 355.62552734 -26.79052734 355.43261719 C12.30144478 345.01888272 46.52709671 319.54691551 67.1875 284.79541016 C81.44289973 260.09208318 89.94295311 232.19888026 90.23828125 203.53125 C90.2480751 202.74168411 90.25786896 201.95211823 90.26795959 201.1386261 C90.70671963 156.56775968 80.44727077 114.90980613 53 79 C52.34386719 78.13117188 51.68773437 77.26234375 51.01171875 76.3671875 C31.17925013 50.82723827 6.37918645 33.77327862 -22 19 C-21.67 18.01 -21.34 17.02 -21 16 C-18.7421875 15.04296875 -18.7421875 15.04296875 -15.875 14.1875 C-9.02474563 11.84773779 -4.68894599 8.94203494 -1.0625 2.625 C-0.711875 1.75875 -0.36125 0.8925 0 0 Z " fill="#000000" transform="translate(817,339)"/>
<path d="M0 0 C1.09821662 3.29464985 0.98376176 3.75121869 -0.17163086 6.82885742 C-0.59217995 7.96970039 -0.59217995 7.96970039 -1.02122498 9.1335907 C-1.33261917 9.94931046 -1.64401337 10.76503021 -1.96484375 11.60546875 C-2.27700333 12.44467361 -2.5891629 13.28387848 -2.91078186 14.14851379 C-3.91104678 16.83150003 -4.92408855 19.50945531 -5.9375 22.1875 C-6.61738263 24.00424085 -7.29642975 25.82129461 -7.97460938 27.63867188 C-9.64006181 32.09613838 -11.31698989 36.54913466 -13 41 C-13.64735107 41.08451416 -14.29470215 41.16902832 -14.96166992 41.25610352 C-52.75447787 46.34468633 -79.27772384 60.06322109 -106 87 C-105.45625732 86.92483154 -104.91251465 86.84966309 -104.35229492 86.7722168 C-79.56957389 83.39727702 -54.05464169 80.02384513 -29 81 C-29.4337188 82.50109768 -29.87222635 84.00081177 -30.3125 85.5 C-30.55613281 86.3353125 -30.79976562 87.170625 -31.05078125 88.03125 C-32.23745712 91.74266426 -33.6114043 95.3593121 -35 99 C-35.97308105 99.01458252 -36.94616211 99.02916504 -37.94873047 99.04418945 C-80.32966156 99.7249196 -124.43351819 101.4778394 -165 115 C-163.60394531 114.83564453 -163.60394531 114.83564453 -162.1796875 114.66796875 C-157.91397899 114.18180344 -153.64289037 113.75736996 -149.37011719 113.33837891 C-147.06236646 113.10666763 -144.75573632 112.8635931 -142.45019531 112.61083984 C-108.73017135 108.9748741 -74.86366061 109.70119901 -41 110 C-40 112 -40 112 -41.0480957 115.3605957 C-41.58276022 116.80194504 -42.12595428 118.24014746 -42.67578125 119.67578125 C-42.96100143 120.43795456 -43.24622162 121.20012787 -43.54008484 121.98539734 C-44.4570988 124.43051267 -45.38471525 126.87145392 -46.3125 129.3125 C-46.92711887 130.94700762 -47.54105961 132.5817704 -48.15429688 134.21679688 C-52.73785369 146.41265586 -52.73785369 146.41265586 -55 152 C-99.31405824 154.20894682 -99.31405824 154.20894682 -120.5625 154.1875 C-121.27283386 154.1882251 -121.98316772 154.1889502 -122.71502686 154.18969727 C-128.66093088 154.18900178 -134.15356251 154.1692875 -140 153 C-140 161.58 -140 170.16 -140 179 C-136.04 178.01 -136.04 178.01 -132 177 C-128.59863281 176.75708008 -128.59863281 176.75708008 -125.203125 176.76953125 C-123.28959229 176.77134399 -123.28959229 176.77134399 -121.33740234 176.77319336 C-119.97492917 176.78568575 -118.61246159 176.79880176 -117.25 176.8125 C-115.83675297 176.82006153 -114.42350418 176.82729983 -113.01025391 176.83422852 C-103.46146424 176.89724412 -93.91855687 177.11443067 -84.375 177.4375 C-83.21516602 177.47657471 -82.05533203 177.51564941 -80.86035156 177.5559082 C-75.80977439 177.75285511 -70.98154744 178.09755905 -66 179 C-66.43191634 180.52242851 -66.87087562 182.04285919 -67.3125 183.5625 C-67.55613281 184.40941406 -67.79976562 185.25632812 -68.05078125 186.12890625 C-69.16992621 189.51397435 -70.58150971 192.73057339 -72 196 C-90.96050641 196.32130866 -109.78262658 196.24320366 -128.6875 194.625 C-129.80129532 194.53017838 -129.80129532 194.53017838 -130.93759155 194.43344116 C-141.97841432 193.47638896 -152.98998811 192.25805636 -164 191 C-134.86372469 198.6581519 -105.88741356 202.62876967 -76 206 C-78.40442601 214.56827947 -81.49718664 222.82752581 -84.6875 231.125 C-85.20410221 232.47643786 -85.72038055 233.82799958 -86.23632812 235.1796875 C-87.48716096 238.45455893 -88.742347 241.7277407 -90 245 C-103.03717477 243.32612474 -115.42654362 240.84188945 -128 237 C-120.68887006 250.62157449 -112.36283018 262.37822396 -101 273 C-105.04052715 284.79538368 -109.23346473 296.47650815 -114 308 C-128.9288718 299.01957615 -143.03065868 287.61054931 -154 274 C-154.76957031 273.05640625 -155.53914062 272.1128125 -156.33203125 271.140625 C-184.29425118 236.2367731 -196.77360173 191.78581747 -192.5390625 147.37109375 C-188.2111128 110.53383379 -171.596756 76.65776143 -146 50 C-145.16082031 49.10925781 -144.32164062 48.21851563 -143.45703125 47.30078125 C-113.52026806 16.32724704 -72.04968541 0.02573775 -29.44335938 -1.94677734 C-19.60433758 -2.09885525 -9.77219441 -1.05742553 0 0 Z " fill="#000000" transform="translate(761,388)"/>
<path d="M0 0 C1.0940918 -0.00686325 2.18818359 -0.0137265 3.31542969 -0.02079773 C6.90459454 -0.0389841 10.49331883 -0.0352395 14.08251953 -0.02954102 C16.59538921 -0.03410689 19.10825764 -0.03941368 21.62112427 -0.04542542 C26.87799028 -0.05434066 32.13474354 -0.05218806 37.39160156 -0.04199219 C43.43906332 -0.03052094 49.48608106 -0.04458122 55.53348434 -0.07138866 C61.38651287 -0.09634784 67.23937065 -0.09870133 73.09244156 -0.0922718 C75.56659814 -0.09211913 78.04076348 -0.09811846 80.51488876 -0.11056328 C83.98421333 -0.12555632 87.452579 -0.11473407 90.921875 -0.09765625 C91.92900543 -0.10732422 92.93613586 -0.11699219 93.9737854 -0.12695312 C107.7476486 0.01396021 118.51361149 5.50646955 128.40283203 14.84155273 C141.84957112 29.14054993 141.19313277 46.27242829 141.12158203 64.75170898 C141.12428132 67.21545057 141.12816737 69.67919111 141.13317871 72.14292908 C141.13905201 77.2877728 141.13057989 82.43233735 141.11181641 87.57714844 C141.08901667 94.14601621 141.10217105 100.71423047 141.12610626 107.28307438 C141.14061248 112.36454627 141.13593629 117.44586515 141.12559509 122.52734184 C141.12294177 124.94846106 141.126148 127.36959454 141.13551331 129.7906971 C141.1851469 146.22347798 140.87869052 158.89381357 130.59033203 172.40405273 C129.86845703 173.41467773 129.14658203 174.42530273 128.40283203 175.46655273 C124.59486272 179.94280806 119.39050079 183.09185223 114.59033203 186.40405273 C115.73308594 187.6202832 115.73308594 187.6202832 116.89892578 188.86108398 C122.71517273 195.08582039 128.34550214 201.37231945 133.67626953 208.02124023 C135.29799427 210.04012205 136.95937489 212.00819727 138.65283203 213.96655273 C140.59033203 216.40405273 140.59033203 216.40405273 140.59033203 218.40405273 C135.34376379 218.67781003 130.10141757 218.87636378 124.84936523 219.00830078 C123.06705276 219.06332736 121.28523034 219.13818423 119.50463867 219.23388672 C104.71365116 220.00843577 104.71365116 220.00843577 99.51757812 216.08227539 C97.24759659 213.29475117 95.43573648 210.48286926 93.59033203 207.40405273 C92.1267073 205.70535311 90.63065597 204.03352502 89.09033203 202.40405273 C85.17141951 198.10413483 81.49862334 193.64485727 77.84033203 189.12280273 C75.65531634 186.48257544 73.39861812 183.93675553 71.09033203 181.40405273 C67.17141951 177.10413483 63.49862334 172.64485727 59.84033203 168.12280273 C57.65531634 165.48257544 55.39861812 162.93675553 53.09033203 160.40405273 C49.16221615 156.09337252 45.47047738 151.62962021 41.80908203 147.09155273 C38.99381372 143.68150943 36.03080617 140.42273149 33.02392578 137.18139648 C31.59033203 135.40405273 31.59033203 135.40405273 31.59033203 133.40405273 C32.45916016 133.37827148 33.32798828 133.35249023 34.22314453 133.32592773 C41.09996737 132.98747113 44.92260417 132.4186933 50.59033203 128.40405273 C64.22585375 123.47953958 83.71734273 123.09885177 97.29345703 128.47436523 C101.20780589 130.3377828 104.72733453 132.47144537 108.2434082 134.99853516 C108.87099533 135.44895676 109.49858246 135.89937836 110.14518738 136.3634491 C110.62208511 136.7068483 111.09898285 137.0502475 111.59033203 137.40405273 C111.57544436 125.15554869 111.53379279 112.90745329 111.45824146 100.65916443 C111.42399257 94.97137203 111.39886468 89.28384765 111.39477539 83.59594727 C111.39048804 78.10382092 111.36198827 72.61229895 111.31690025 67.12036133 C111.30393935 65.02811202 111.29961256 62.93579033 111.30417824 60.84350586 C111.3090941 57.9059981 111.28294739 54.97025005 111.24975586 52.03295898 C111.2583815 51.17340103 111.26700714 50.31384308 111.27589417 49.42823792 C111.16122673 43.35007071 109.57449109 39.0572112 105.59033203 34.40405273 C99.10474308 29.27619361 92.22260701 29.25308343 84.35302734 29.24291992 C83.43041107 29.23795502 82.5077948 29.23299011 81.55722046 29.22787476 C78.51095833 29.21329389 75.46474829 29.20645768 72.41845703 29.20092773 C70.29482014 29.19517265 68.17118326 29.18941496 66.04754639 29.18365479 C61.59565998 29.17315619 57.14379157 29.16730615 52.69189453 29.16381836 C47.0014883 29.15833803 41.31132187 29.13431487 35.62099075 29.10584641 C31.23365597 29.08717562 26.84637842 29.08201204 22.45900726 29.08048248 C20.36195313 29.07746514 18.26489978 29.06946779 16.16788483 29.0562973 C13.22681195 29.03914504 10.28631814 29.04113954 7.34521484 29.04760742 C6.48775665 29.03839264 5.63029846 29.02917786 4.74685669 29.01968384 C-2.30999125 29.06802979 -8.69151616 30.21771323 -14.28466797 34.71655273 C-19.20647688 40.94119342 -19.85050206 45.84134598 -19.8137207 53.52099609 C-19.82401558 55.02700127 -19.82401558 55.02700127 -19.83451843 56.56343079 C-19.85278102 59.87373093 -19.84894959 63.1835569 -19.84326172 66.49389648 C-19.84782374 68.80025893 -19.85312937 71.10662002 -19.85914612 73.41297913 C-19.86807616 78.24396288 -19.86565515 83.0747813 -19.85571289 87.90576172 C-19.84422314 94.09080896 -19.86443592 100.27528529 -19.89363003 106.46025753 C-19.91199251 111.22241326 -19.91169943 115.9844322 -19.90599251 120.74661446 C-19.9058393 123.02673709 -19.91188297 125.30686901 -19.92428398 127.58695793 C-19.93919262 130.77757264 -19.92851697 133.96713271 -19.91137695 137.15771484 C-19.92104492 138.09559845 -19.93071289 139.03348206 -19.94067383 139.99978638 C-19.87342018 145.99073316 -18.8820775 149.48578224 -15.40966797 154.40405273 C-11.67485073 157.94734088 -7.99219869 160.31005621 -2.75341797 160.50073242 C-1.81498047 160.44304687 -0.87654297 160.38536133 0.09033203 160.32592773 C18.27625183 159.72925476 18.27625183 159.72925476 23.80908203 164.19311523 C26.65994802 167.05165461 29.03417693 170.20780131 31.29980469 173.54272461 C33.26612087 176.37874325 35.52689586 178.91415043 37.77783203 181.52905273 C40.13388804 184.40527695 41.98257006 187.06373939 43.59033203 190.40405273 C36.54694664 190.48068682 29.50367044 190.53289569 22.45996094 190.56884766 C20.0683185 190.58384986 17.67670318 190.6042582 15.28515625 190.63037109 C11.82952139 190.66713317 8.37425311 190.68386538 4.91845703 190.69702148 C3.86482971 190.71250534 2.81120239 190.7279892 1.72564697 190.74394226 C-12.70239867 190.74714697 -25.17474335 186.69696676 -35.72216797 176.65405273 C-46.09059216 165.64377371 -49.89038243 154.09770925 -49.79785156 139.12451172 C-49.805737 137.52222717 -49.805737 137.52222717 -49.81378174 135.88757324 C-49.82687835 132.39161118 -49.81828087 128.89611238 -49.80810547 125.40014648 C-49.81012902 122.95117608 -49.81304279 120.50220627 -49.81680298 118.05323792 C-49.82121222 112.93517283 -49.81483976 107.81726543 -49.80078125 102.69921875 C-49.78368139 96.15709872 -49.79354489 89.61534777 -49.81149864 83.07324123 C-49.8223665 78.0210342 -49.81887648 72.9689139 -49.81111526 67.91670418 C-49.80912204 65.50509662 -49.8115415 63.09348104 -49.81855392 60.68188286 C-49.82621877 57.3057776 -49.81449372 53.93026093 -49.79785156 50.55419922 C-49.80392426 49.5695015 -49.80999695 48.58480377 -49.81625366 47.57026672 C-49.69943301 34.70233322 -45.06384745 22.9676852 -36.15966797 13.59155273 C-25.56630434 3.67247355 -14.3359708 -0.06382203 0 0 Z " fill="#273379" transform="translate(355.40966796875,845.595947265625)"/>
<path d="M0 0 C9.57 0 19.14 0 29 0 C30.32 2.97 31.64 5.94 33 9 C37.37136247 13.28029242 41.22084681 16.24498746 47.42443848 16.25828552 C48.30449554 16.26511353 49.18455261 16.27194153 50.09127808 16.27897644 C51.52819504 16.27514702 51.52819504 16.27514702 52.99414062 16.27124023 C54.0093277 16.27646698 55.02451477 16.28169373 56.07046509 16.28707886 C58.2759293 16.2973214 60.4814177 16.3030997 62.68690491 16.30496025 C66.18554936 16.30862444 69.68391046 16.32535589 73.18249512 16.34571838 C83.13039865 16.40110477 93.07834499 16.43171904 103.02636719 16.45629883 C109.1129902 16.47224383 115.19941473 16.50254289 121.28593445 16.54106331 C123.59817891 16.55266016 125.910459 16.55864319 128.22273254 16.55874443 C147.65645744 16.55990314 163.91171536 17.48840436 178.73828125 31.546875 C188.43333972 42.06241338 190.5319495 53.81668754 190.44604492 67.7121582 C190.43755349 69.79935157 190.4663561 71.88377955 190.49804688 73.97070312 C190.56923143 87.38046584 187.71071911 98.57217814 179 109 C178.40316406 109.72058594 177.80632812 110.44117188 177.19140625 111.18359375 C170.01776183 119.07311121 159.45379206 124.43299952 148.76482487 125.24609566 C147.65037715 125.24425207 146.53592943 125.24240849 145.38771057 125.24050903 C144.09913651 125.24325836 142.81056244 125.24600769 141.48294067 125.24884033 C140.07269192 125.24176387 138.66244413 125.23449427 137.25219727 125.22705078 C135.75364693 125.22648608 134.25509604 125.22680437 132.75654602 125.22793579 C128.7033219 125.22850802 124.6502169 125.21677476 120.59702039 125.20278788 C116.35561561 125.19025886 112.1142079 125.18910831 107.87278748 125.18673706 C99.84773616 125.18052867 91.82273953 125.16412653 83.79771227 125.14403808 C74.65867468 125.12165913 65.51963443 125.11068063 56.38057625 125.10064721 C37.58701356 125.07975972 18.79352581 125.04309149 0 125 C0 115.76 0 106.52 0 97 C4.32029297 96.98541748 8.64058594 96.97083496 13.09179688 96.95581055 C27.36503953 96.90547669 41.6381736 96.83903349 55.91130829 96.76428509 C64.56520875 96.71935798 73.21906834 96.67993622 81.87304688 96.65356445 C89.41762427 96.63055936 96.962072 96.59713334 104.5065465 96.55129844 C108.49969932 96.5274 112.49272399 96.50864913 116.48594666 96.50238609 C120.24855777 96.49631987 124.01084112 96.476265 127.77333069 96.44572449 C129.80425193 96.43281049 131.83524984 96.43450998 133.86621094 96.4367218 C142.79865816 96.34511941 150.36386767 95.63613233 157 89 C159.27299063 85.23780861 160 83.44867265 160 79 C156.88781865 77.44390932 153.58127775 77.83803371 150.1640625 77.82641602 C149.35387665 77.819729 148.5436908 77.81304199 147.70895386 77.80615234 C145.9432731 77.79207649 144.17757386 77.78019057 142.41186523 77.77020454 C139.60068275 77.75376404 136.78963235 77.73051423 133.97851562 77.70530701 C125.98281511 77.63469143 117.98705461 77.57501918 109.99121094 77.52319336 C105.09990935 77.49100904 100.20875011 77.44961952 95.31756592 77.40299797 C93.46802393 77.38718338 91.6184491 77.3747697 89.76885986 77.36609077 C80.54110079 77.32224045 71.39994844 77.10140358 62.21875 76.11694336 C61.50609985 76.04201692 60.79344971 75.96709047 60.0592041 75.88989353 C41.45607662 73.66971156 26.76720086 64.32337591 14.75 50.25 C6.11746199 38.85017662 3.59711246 27.00063876 1.38549805 13.17553711 C1.04877528 11.0371132 1.04877528 11.0371132 0.45239258 9.15454102 C0 7 0 7 0 0 Z " fill="#273379" transform="translate(738,910)"/>
<path d="M0 0 C10.56 0 21.12 0 32 0 C32.96035156 2.26101563 33.92070313 4.52203125 34.91015625 6.8515625 C56.71507155 58.20767004 56.71507155 58.20767004 78.64608765 109.50997925 C80.38449727 113.56129811 82.12084815 117.61349977 83.85707092 121.66575623 C85.84842697 126.31345544 87.84104006 130.96061287 89.83447266 135.60742188 C92.20322337 141.1304542 94.56858654 146.65492259 96.93058205 152.18084717 C98.24467149 155.25489214 99.56065629 158.32809047 100.87939453 161.40014648 C102.3571199 164.84322303 103.82952623 168.2885296 105.30078125 171.734375 C105.74589554 172.76822327 106.19100983 173.80207153 106.64961243 174.86724854 C107.06212753 175.83628113 107.47464264 176.80531372 107.8996582 177.80371094 C108.25856644 178.64190369 108.61747467 179.48009644 108.98725891 180.34368896 C110.18844392 183.49426815 111.07369696 186.75793934 112 190 C101.77 190 91.54 190 81 190 C72.85683654 173.71367308 66.06600071 156.78175168 59 140 C31.28 140 3.56 140 -25 140 C-27.7225 146.39375 -30.445 152.7875 -33.25 159.375 C-34.10110352 161.37224121 -34.95220703 163.36948242 -35.82910156 165.42724609 C-36.51636131 167.04260695 -37.20354093 168.65800191 -37.890625 170.2734375 C-38.23722168 171.08594971 -38.58381836 171.89846191 -38.94091797 172.7355957 C-41.37519459 178.46280333 -43.68753305 184.21883261 -46 190 C-56.56 190 -67.12 190 -78 190 C-74.62479782 179.87439346 -74.62479782 179.87439346 -72.84960938 175.71948242 C-72.45003021 174.77955444 -72.05045105 173.83962646 -71.63876343 172.87121582 C-71.211409 171.87601929 -70.78405457 170.88082275 -70.34375 169.85546875 C-69.88843903 168.78752075 -69.43312805 167.71957275 -68.96401978 166.6192627 C-67.47963002 163.14045066 -65.9900122 159.66390717 -64.5 156.1875 C-63.47100354 153.78043512 -62.44219682 151.37328912 -61.41357422 148.96606445 C-58.281744 141.6414514 -55.14151256 134.32046529 -52 127 C-51.02506227 124.72656372 -50.05012729 122.45312625 -49.07519531 120.1796875 C-46.84410438 114.97899803 -44.60946296 109.77984998 -42.37133789 104.58218384 C-41.54143944 102.65470202 -40.71217351 100.72694775 -39.88354492 98.79891968 C-38.73996991 96.13959838 -37.59319439 93.4816833 -36.4453125 90.82421875 C-35.93914902 89.64539124 -35.93914902 89.64539124 -35.42276001 88.44274902 C-33.11477322 83.11477322 -33.11477322 83.11477322 -32 82 C-30.48433553 81.70159433 -28.96205217 81.43654898 -27.4375 81.1875 C-23.96342023 80.53396024 -21.19786022 79.74020926 -18.125 78 C-5.54915813 71.23227787 10.58354472 73.77715534 24 76 C23.49178771 70.00015495 22.16265192 65.28145426 19.7265625 59.80078125 C19.40215179 59.04387497 19.07774109 58.28696869 18.74349976 57.50712585 C17.37104162 54.30538939 15.97534967 51.11396581 14.58007812 47.92211914 C10.41683633 38.35905831 6.84730748 29.31428814 5 19 C4.82033691 18.06067627 4.64067383 17.12135254 4.45556641 16.15356445 C4.16881689 14.64067646 3.89070377 13.12610071 3.625 11.609375 C2.68067924 7.66683581 1.28200456 3.84601369 0 0 Z " fill="#273379" transform="translate(1019,845)"/>
<path d="M0 0 C0.33 0 0.66 0 1 0 C0.25581185 31.32355582 -18.89737107 62.1582247 -40 84 C-40.50926025 84.53117432 -41.01852051 85.06234863 -41.54321289 85.60961914 C-70.80857728 115.60176554 -115.09768705 131.49108783 -156.50170898 132.24145508 C-175.57204835 132.31600683 -194.79207275 129.78302092 -213 124 C-213.66 123.34 -214.32 122.68 -215 122 C-212.57940495 114.07805255 -212.57940495 114.07805255 -208.87109375 111.546875 C-206.59797877 110.54325916 -204.38211618 109.70456957 -202 109 C-201.37738281 108.80921875 -200.75476563 108.6184375 -200.11328125 108.421875 C-190.93526254 106.58966424 -181.14274683 108.13569008 -172 109.4375 C-132.96994489 114.9398756 -91.88624624 111.95042176 -58.93359375 88.15625 C-52.85582855 83.55881488 -47.20305099 78.57469749 -42 73 C-46.89073891 73.55436587 -51.73148959 74.27117635 -56.5859375 75.0859375 C-87.73374349 80.29309134 -118.26827414 82.26910462 -149.8125 82.25 C-150.53634258 82.24979984 -151.26018517 82.24959969 -152.00596237 82.24939346 C-156.24194795 82.24706874 -160.4777907 82.23601005 -164.71371841 82.21351814 C-166.63757605 82.20348714 -168.56144922 82.19658697 -170.48532104 82.18980408 C-190.88406332 82.02786552 -190.88406332 82.02786552 -198 80 C-197.36424474 74.97581521 -195.89113714 70.65470895 -194.05859375 65.9765625 C-193.77146011 65.23038666 -193.48432648 64.48421082 -193.18849182 63.71542358 C-192.27680874 61.34985577 -191.35729089 58.9874255 -190.4375 56.625 C-189.81523393 55.01452424 -189.19348364 53.40384908 -188.57226562 51.79296875 C-187.05413629 47.85964658 -185.52897647 43.92911764 -184 40 C-182.45566284 39.970271 -182.45566284 39.970271 -180.88012695 39.93994141 C-85.56957836 41.05069621 -85.56957836 41.05069621 -2.3125 2.5625 C-1.1678125 1.2940625 -1.1678125 1.2940625 0 0 Z " fill="#000000" transform="translate(889,555)"/>
<path d="M0 0 C1.17667236 -0.00064453 2.35334473 -0.00128906 3.56567383 -0.00195312 C13.15463226 0.05561072 22.5182723 0.79932549 32 2.1875 C32.03867187 3.34765625 32.03867187 3.34765625 32.078125 4.53125 C32.53697002 12.95731314 34.3809891 18.25898365 39 25.1875 C38.67 25.8475 38.34 26.5075 38 27.1875 C36.741875 26.94 35.48375 26.6925 34.1875 26.4375 C33.26710938 26.25703125 32.34671875 26.0765625 31.3984375 25.890625 C28.89122384 25.37189114 26.40543616 24.82017517 23.9140625 24.234375 C7.69765484 20.4983628 -9.33169035 18.26038692 -26 19.1875 C-26.77682129 19.22858887 -27.55364258 19.26967773 -28.35400391 19.31201172 C-72.51434481 21.84401148 -113.99824192 37.88407694 -146.69140625 68.06640625 C-148.81495436 70.01748345 -150.98675681 71.88718282 -153.1875 73.75 C-186.98602973 103.27395658 -205.53300262 151.53609793 -208.72265625 195.33984375 C-211.76604013 244.95769653 -196.03515575 294.71733194 -163 332.1875 C-162.13761719 333.17105469 -161.27523437 334.15460938 -160.38671875 335.16796875 C-142.10536762 355.72021411 -120.17218635 369.60424838 -96 382.1875 C-96.33 383.1775 -96.66 384.1675 -97 385.1875 C-99.00390625 385.890625 -99.00390625 385.890625 -101.5625 386.4375 C-108.10462377 388.24383746 -112.78575866 391.60968631 -116.3828125 397.421875 C-117.33737163 399.3042923 -118.1809627 401.24228641 -119 403.1875 C-123.86599864 401.60605044 -127.48792046 398.81896843 -131.5 395.75 C-132.2019751 395.21721436 -132.9039502 394.68442871 -133.62719727 394.13549805 C-148.66312977 382.63102791 -161.6001606 370.32431846 -173 355.1875 C-173.41894531 354.6399707 -173.83789062 354.09244141 -174.26953125 353.52832031 C-209.0084128 307.95421618 -225.07745426 247.89136869 -217.48071289 191.11572266 C-211.5541983 151.50734153 -195.97699589 113.6131021 -171 82.1875 C-170.02933594 80.91132813 -170.02933594 80.91132813 -169.0390625 79.609375 C-133.29124018 33.86311962 -77.10322513 8.17356157 -20.52880859 0.8684082 C-13.6896262 0.09326412 -6.87811042 -0.00391553 0 0 Z " fill="#000000" transform="translate(739,323.8125)"/>
<path d="M0 0 C9.57 0 19.14 0 29 0 C29.01417969 4.6715625 29.02835938 9.343125 29.04296875 14.15625 C29.06304184 17.12767864 29.08457399 20.09895481 29.11132812 23.0703125 C29.15359346 27.7796825 29.19064853 32.48866574 29.19555664 37.19824219 C29.19985639 40.99819782 29.22845558 44.79728545 29.27343178 48.5969696 C29.2863537 50.04167105 29.29073334 51.48647666 29.28615379 52.93122864 C29.25263191 64.39522557 29.25263191 64.39522557 35 74 C39.6640127 77.71217337 43.35073676 79.11629101 49.22357178 79.14044189 C50.47660095 79.14900711 50.47660095 79.14900711 51.75494385 79.15774536 C52.66306824 79.15886322 53.57119263 79.15998108 54.50683594 79.16113281 C55.95147217 79.16858017 55.95147217 79.16858017 57.42529297 79.17617798 C60.61166092 79.1907833 63.79797907 79.19759924 66.984375 79.203125 C69.20151775 79.2088782 71.41866049 79.21463591 73.63580322 79.22039795 C78.28617586 79.23090358 82.93653123 79.23674899 87.58691406 79.24023438 C93.53639468 79.24571534 99.48564601 79.26973689 105.43505478 79.29820633 C110.01622172 79.31686071 114.59733376 79.32203983 119.17853546 79.32357025 C121.37131248 79.32659143 123.56408866 79.33460187 125.75682831 79.34775543 C128.8299232 79.36487269 131.90246229 79.36292156 134.97558594 79.35644531 C135.8756134 79.3656601 136.77564087 79.37487488 137.70294189 79.3843689 C144.10696157 79.3422432 149.73911703 78.42992437 155.0234375 74.4921875 C155.46945312 73.95851563 155.91546875 73.42484375 156.375 72.875 C156.83648438 72.35679687 157.29796875 71.83859375 157.7734375 71.3046875 C159.62751592 68.0683129 159.62751592 68.0683129 161 60 C170.57 60 180.14 60 190 60 C190 72.82281015 187.23723215 82.13900134 179 92 C178.40316406 92.72058594 177.80632812 93.44117188 177.19140625 94.18359375 C170.27972426 101.785007 159.93734823 107.37339308 149.57914162 108.19111252 C146.69482246 108.27361124 143.81641728 108.29308648 140.9309082 108.29052734 C139.29042763 108.30060318 139.29042763 108.30060318 137.61680603 108.31088257 C134.01141783 108.32983552 130.40621613 108.33378569 126.80078125 108.3359375 C124.28362452 108.34236816 121.76646853 108.34909673 119.24931335 108.35610962 C113.97454629 108.36807626 108.6998262 108.37187706 103.42504883 108.37060547 C97.3555147 108.36940629 91.28633744 108.39047083 85.21689349 108.4220928 C79.34947337 108.45155703 73.48219261 108.45857717 67.61470604 108.45738602 C65.13216891 108.45973624 62.64962876 108.46852689 60.16713905 108.48405075 C56.68315244 108.50379448 53.20006769 108.49783867 49.71606445 108.48583984 C48.70422089 108.49707886 47.69237732 108.50831787 46.64987183 108.51989746 C33.21897469 108.4032112 22.37356272 103.28174811 12.75 94.125 C1.48357675 82.25501836 -0.62310308 68.54742129 -0.390625 52.63671875 C-0.38314273 51.10830942 -0.37745923 49.57989034 -0.37347412 48.0514679 C-0.35837352 44.07455853 -0.31923164 40.09825564 -0.2746582 36.12158203 C-0.23336418 32.0453308 -0.21539109 27.96897929 -0.1953125 23.89257812 C-0.15271747 15.92807929 -0.08250083 7.9641855 0 0 Z " fill="#273379" transform="translate(522,927)"/>
<path d="M0 0 C7.35374553 1.83755885 14.29812241 4.10659482 21.25 7.125 C22.1575 7.51824463 23.065 7.91148926 24 8.31665039 C58.86650903 23.77696773 87.29696632 52.42014089 101.484375 87.93212891 C107.32812632 103.23843418 111.25149269 119.54818676 111 136 C110.030625 135.154375 109.06125 134.30875 108.0625 133.4375 C107.41152344 132.88707031 106.76054688 132.33664062 106.08984375 131.76953125 C104.75437644 130.63875238 103.43243103 129.49167622 102.12890625 128.32421875 C67.28055788 98.77444966 8.21742056 98.0271514 -35 94 C-34.02429039 91.18625639 -33.04461694 88.3740064 -32.0625 85.5625 C-31.64581055 84.35883789 -31.64581055 84.35883789 -31.22070312 83.13085938 C-30.95322266 82.36708984 -30.68574219 81.60332031 -30.41015625 80.81640625 C-30.16402588 80.10943604 -29.91789551 79.40246582 -29.66430664 78.67407227 C-29 77 -29 77 -28 76 C-17.56531425 75.42989134 -7.08247341 76.33088741 3.3125 77.1875 C4.1077005 77.2521344 4.902901 77.3167688 5.72219849 77.38336182 C29.48829705 79.34853709 53.03268819 82.71579966 76.16357422 88.62036133 C78.17710401 89.10122316 78.17710401 89.10122316 81 89 C66.6226014 70.55626644 50.49163498 56.53058368 29 47 C27.92234375 46.51789063 26.8446875 46.03578125 25.734375 45.5390625 C13.4212499 40.43437496 0.0856303 38.22730731 -13 36 C-8.8264281 23.93722306 -4.54761996 11.92709117 0 0 Z " fill="#000000" transform="translate(781,393)"/>
<path d="M0 0 C9.9060858 0.51480949 19.67780944 1.30295535 29.5 2.75 C31.2934082 3.01224365 31.2934082 3.01224365 33.12304688 3.27978516 C100.78759347 13.47961556 100.78759347 13.47961556 117.125 33.4375 C119.63509027 37.42148669 119.66204192 40.36570654 119 45 C113.65982461 56.3768954 100.00038504 61.60236511 88.89941406 65.79296875 C59.41213248 76.3884899 27.94172836 80.28351018 -3.125 82.75 C-4.35351181 82.84781265 -4.35351181 82.84781265 -5.60684204 82.94760132 C-14.07913613 83.61071345 -22.49494685 84.17112783 -31 84 C-27.45231744 71.61035679 -27.45231744 71.61035679 -25 67 C-21.46095303 65.58364653 -17.54437029 65.75915593 -13.78125 65.60546875 C-12.29415744 65.53928976 -10.80709811 65.47236072 -9.32006836 65.40478516 C-8.53534149 65.36992004 -7.75061462 65.33505493 -6.94210815 65.2991333 C19.50427351 64.09022006 46.17578081 62.09918745 72 56 C72.33 54.68 72.66 53.36 73 52 C66.27611412 49.48522267 59.65250247 48.05600489 52.5625 47 C51.45575928 46.83266357 50.34901855 46.66532715 49.20874023 46.49291992 C27.97895894 43.43049734 6.42618747 41.8197354 -15 41 C-12.57756953 32.05170092 -9.19347429 23.49119085 -5.8125 14.875 C-5.24769143 13.42722195 -4.68323563 11.97930622 -4.11914062 10.53125 C-2.75015196 7.01923429 -1.37641585 3.50911116 0 0 Z " fill="#000000" transform="translate(741,500)"/>
<path d="M0 0 C0.9949498 -0.00511093 1.9898996 -0.01022186 3.01499939 -0.01548767 C6.2746294 -0.02928488 9.53404559 -0.02843421 12.79370117 -0.02612305 C15.0799721 -0.03001566 17.36624231 -0.03435149 19.6525116 -0.03910828 C24.43438058 -0.0465495 29.2161757 -0.04629463 33.99804688 -0.04101562 C40.09709445 -0.03522684 46.19583776 -0.05214826 52.29483509 -0.0753603 C57.01431518 -0.09016099 61.73372308 -0.09096068 66.45322227 -0.08785057 C68.70047291 -0.0883607 70.94772793 -0.09353984 73.19495583 -0.10366249 C91.51279869 -0.17605197 108.62477693 0.34596204 122.90307617 13.52856445 C132.49268806 23.8576163 136.52416992 35.2848136 136.52416992 49.2746582 C126.95416992 49.2746582 117.38416992 49.2746582 107.52416992 49.2746582 C106.53416992 44.8196582 106.53416992 44.8196582 105.52416992 40.2746582 C104.42234173 37.98554877 104.42234173 37.98554877 102.89916992 36.3996582 C102.4531543 35.86598633 102.00713867 35.33231445 101.54760742 34.7824707 C95.43242238 30.22559537 88.89159025 29.83668082 81.56323242 29.88647461 C80.5995575 29.88121765 79.63588257 29.87596069 78.64300537 29.87054443 C75.47822548 29.85741113 72.31395435 29.86605899 69.14916992 29.8762207 C66.93774317 29.87419806 64.72631706 29.87128503 62.51489258 29.86752319 C57.8883629 29.86310886 53.26200742 29.86950231 48.63549805 29.88354492 C42.71747979 29.90063608 36.79986976 29.89079015 30.88186646 29.87282753 C26.31784004 29.86196571 21.75390975 29.86544707 17.18988037 29.87321091 C15.00827994 29.87520627 12.82667066 29.87277705 10.64508057 29.86577225 C7.59152239 29.85811838 4.53861721 29.86981736 1.48510742 29.88647461 C0.14449249 29.87736557 0.14449249 29.87736557 -1.22320557 29.86807251 C-7.60139232 29.93224092 -13.23794682 30.86187261 -18.49926758 34.7824707 C-18.9452832 35.31614258 -19.39129883 35.84981445 -19.85083008 36.3996582 C-20.31231445 36.91786133 -20.77379883 37.43606445 -21.24926758 37.9699707 C-23.103346 41.2063453 -23.103346 41.2063453 -24.47583008 49.2746582 C-34.04583008 49.2746582 -43.61583008 49.2746582 -53.47583008 49.2746582 C-53.47583008 37.01322482 -50.93346411 27.98597285 -43.47583008 18.2746582 C-42.60958008 16.9752832 -42.60958008 16.9752832 -41.72583008 15.6496582 C-30.43632775 3.7329613 -15.87636911 -0.04293458 0 0 Z " fill="#273379" transform="translate(575.475830078125,844.725341796875)"/>
<path d="M0 0 C1.44973238 0.00056524 2.89946534 0.00024536 4.34919739 -0.00088501 C8.25555655 -0.00145513 12.16179105 0.01024353 16.06812143 0.02426291 C20.16136436 0.03682751 24.25461064 0.03794526 28.34786987 0.04031372 C36.08595304 0.04651174 43.8239792 0.06289967 51.56203735 0.0830127 C60.37708745 0.10542415 69.19214039 0.11637828 78.00721192 0.12640357 C96.12838192 0.14726752 114.24947384 0.18392261 132.37060547 0.22705078 C132.37060547 9.79705078 132.37060547 19.36705078 132.37060547 29.22705078 C128.02001953 29.2416333 123.66943359 29.25621582 119.18701172 29.27124023 C104.81398471 29.3215732 90.44106554 29.38801622 76.06814575 29.46276569 C67.35371105 29.50769358 58.63931694 29.54711517 49.92480469 29.57348633 C42.32749011 29.59649078 34.73030432 29.62991611 27.13309193 29.67575234 C23.11199355 29.69965163 19.09102247 29.71840195 15.06985474 29.72466469 C11.28097981 29.73073052 7.49243043 29.75078402 3.70367622 29.78132629 C2.31703518 29.79008261 0.93035156 29.7938341 -0.45631599 29.79205894 C-12.07734803 29.50079716 -12.07734803 29.50079716 -22.13977051 34.60793018 C-26.40489198 39.47313541 -27.56483641 42.83970204 -28.62939453 49.22705078 C-38.19939453 49.22705078 -47.76939453 49.22705078 -57.62939453 49.22705078 C-57.62939453 34.496817 -53.40680453 24.37715568 -43.62939453 13.60205078 C-31.27954042 1.71037001 -16.38424736 -0.09021517 0 0 Z " fill="#273379" transform="translate(795.62939453125,844.77294921875)"/>
<path d="M0 0 C1.57888193 2.05490305 3.07336979 4.11443352 4.47265625 6.296875 C11.63826045 17.35338468 21.42085972 24.56472029 34.38535023 27.54909897 C36.851986 27.97447472 39.09738764 28.12470731 41.59611511 28.12457275 C42.48885132 28.12713577 43.38158752 28.12969879 44.30137634 28.13233948 C45.26821854 28.13023972 46.23506073 28.12813995 47.23120117 28.12597656 C48.25950043 28.1278447 49.28779968 28.12971283 50.34725952 28.13163757 C52.57782427 28.13563681 54.80839311 28.13771597 57.03896141 28.13809967 C61.78874002 28.14152282 66.53838269 28.16289589 71.28811359 28.18333054 C80.12707122 28.22130433 88.96588307 28.25261715 97.80493164 28.25048828 C103.95764603 28.24969963 110.10986143 28.27313072 116.26244545 28.3123703 C118.60146146 28.32280799 120.94053521 28.32437088 123.279562 28.31671906 C126.56086219 28.30705673 129.84066125 28.328358 133.12182617 28.35644531 C134.07854721 28.34624863 135.03526825 28.33605194 136.02098083 28.32554626 C142.90340085 28.43060242 148.24938189 30.15669307 154 34 C158.22426404 38.4587116 158.43459725 43.12233511 158.3515625 49.08007812 C158.30128906 50.49450195 158.30128906 50.49450195 158.25 51.9375 C158.23195313 52.90751953 158.21390625 53.87753906 158.1953125 54.87695312 C158.14850667 57.25234894 158.08296385 59.62563844 158 62 C157.01 61.67 156.02 61.34 155 61 C152.34209898 60.89021127 149.70904279 60.83549676 147.05053711 60.82641602 C145.83503929 60.8163855 145.83503929 60.8163855 144.59498596 60.80615234 C142.83205103 60.79209473 141.06909781 60.78020294 139.30613518 60.77020454 C136.49907366 60.75374044 133.69214313 60.73049063 130.88514709 60.70530701 C122.90225849 60.63475033 114.91931099 60.57499421 106.9362793 60.52319336 C102.05030862 60.4910104 97.1644805 60.44962391 92.2786274 60.40299797 C90.43187651 60.38718602 88.58509278 60.3747712 86.7382946 60.36609077 C77.52139925 60.32221126 68.39132811 60.10015366 59.22094727 59.11694336 C58.50816337 59.04201692 57.79537947 58.96709047 57.06099606 58.88989353 C38.45707117 56.67021515 23.76769947 47.32395983 11.75 33.25 C4.25971716 23.47017726 0 12.33914828 0 0 Z " fill="#000000" transform="translate(741,927)"/>
<path d="M0 0 C2.5610026 3.11987734 4.07836443 6.21490376 5.609375 9.94140625 C6.10912842 11.14724365 6.60888184 12.35308105 7.1237793 13.59545898 C7.38798676 14.24006073 7.65219421 14.88466248 7.92440796 15.54879761 C9.35576691 19.04002668 10.80609289 22.52338274 12.25390625 26.0078125 C12.70906364 27.10527046 12.70906364 27.10527046 13.17341614 28.22489929 C16.29807932 35.74663821 19.50927175 43.23049432 22.72958374 50.71166992 C27.50647 61.81132191 32.26500593 72.91842644 36.9375 84.0625 C37.35668701 85.05564209 37.77587402 86.04878418 38.20776367 87.07202148 C38.5813501 87.96735596 38.95493652 88.86269043 39.33984375 89.78515625 C39.66331787 90.55738525 39.98679199 91.32961426 40.32006836 92.12524414 C41 94 41 94 41 96 C21.86 96 2.72 96 -17 96 C-13.625 85.875 -13.625 85.875 -11.95703125 81.96484375 C-11.63968018 81.21581787 -11.3223291 80.46679199 -10.99536133 79.69506836 C-10.60501709 78.7850708 -10.21467285 77.87507324 -9.8125 76.9375 C-8.554375 73.988125 -7.29625 71.03875 -6 68 C-13.59 68 -21.18 68 -29 68 C-18.78653086 59.82922469 -7.7601131 59.34758042 5 60 C9.68875844 60.54300828 14.34371615 61.22854469 19 62 C18.49178771 56.00015495 17.16265192 51.28145426 14.7265625 45.80078125 C14.40215179 45.04387497 14.07774109 44.28696869 13.74349976 43.50712585 C12.37104162 40.30538939 10.97534967 37.11396581 9.58007812 33.92211914 C-0.33246438 11.15278414 -0.33246438 11.15278414 0 0 Z " fill="#000000" transform="translate(1024,859)"/>
<path d="M0 0 C0.71800781 0.35835937 1.43601562 0.71671875 2.17578125 1.0859375 C4.21942698 2.24086354 5.5634009 3.13978835 7 5 C8.06002596 9.64540788 7.41055466 13.69135702 6 18.1875 C2.35992472 23.30635586 -1.56894959 27.68933442 -7.87109375 29.1171875 C-10.41085478 29.33933177 -11.56886478 29.28967188 -13.70092773 27.85717773 C-15.40934637 26.09836327 -16.88899257 24.2627105 -18.375 22.3125 C-18.94186523 21.63364746 -19.50873047 20.95479492 -20.09277344 20.25537109 C-22.71717964 17.08427541 -25.11429144 13.92584239 -27.1796875 10.36328125 C-30.33275153 5.37100787 -30.33275153 5.37100787 -35 2 C-43.18963958 0.28627821 -51.68278382 0.61598225 -60 1 C-57.28078383 -1.8227613 -55.40119521 -3.54139163 -51.625 -4.6875 C-50.89539063 -4.91824219 -50.16578125 -5.14898438 -49.4140625 -5.38671875 C-33.40005366 -9.45500255 -14.29870099 -8.41679129 0 0 Z " fill="#000000" transform="translate(460,978)"/>
<path d="M0 0 C0.33 0.66 0.66 1.32 1 2 C-3.62 2.33 -8.24 2.66 -13 3 C-8.83099908 0.22066605 -4.8978425 -1.63261417 0 0 Z " fill="#2E3164" transform="translate(606,501)"/>
<path d="M0 0 C3.63 0.33 7.26 0.66 11 1 C10.67 1.99 10.34 2.98 10 4 C8.51882199 3.71872579 7.04006751 3.42466268 5.5625 3.125 C4.73878906 2.96257813 3.91507813 2.80015625 3.06640625 2.6328125 C2.38449219 2.42398438 1.70257812 2.21515625 1 2 C0.67 1.34 0.34 0.68 0 0 Z " fill="#313670" transform="translate(596,578)"/>
</svg>
